<svg xmlns="http://www.w3.org/2000/svg" viewBox="0 0 100 100" width="100%" height="100%">
  <!-- Left half of the shield -->
  <path d="M 50 15 L 24 24 C 24 24 24 56 24 56 C 24 74 42 83 50 87 Z" fill="#4B6175" />
  
  <!-- Right half of the shield -->
  <path d="M 50 15 L 76 24 C 76 24 76 56 76 56 C 76 74 58 83 50 87 Z" fill="#1E5395" />
  
  <!-- Inner border on left -->
  <path d="M 50 24 L 32 30 C 32 30 32 51 32 51 C 32 65 44 72 50 75" fill="none" stroke="#FFFFFF" stroke-width="3" stroke-linecap="round" stroke-linejoin="round" stroke-opacity="0.9" />
  
  <!-- Inner border on right -->
  <path d="M 50 24 L 68 30 C 68 30 68 51 68 51 C 68 65 56 72 50 75" fill="none" stroke="#FFFFFF" stroke-width="3" stroke-linecap="round" stroke-linejoin="round" stroke-opacity="0.9" />
  
  <!-- Green growth line / checkmark -->
  <path d="M 13 61 L 41 37 L 50 47 L 87 14" fill="none" stroke="#4FA375" stroke-width="8.5" stroke-linecap="round" stroke-linejoin="miter" />
</svg>
